<svg xmlns="http://www.w3.org/2000/svg" width="31.507" height="31.5" viewBox="0 0 31.507 31.5">
  <path id="Icon_ionic-md-beer" data-name="Icon ionic-md-beer" d="M29.25,9.844H28.125V9.422A3.9,3.9,0,0,0,29.25,6.75a4.5,4.5,0,0,0-7.481-3.368A5.07,5.07,0,0,0,15.6,3.213a3.991,3.991,0,0,0-5.611.408,4.5,4.5,0,0,0-6.616,6.1V13.57A3.376,3.376,0,0,0,6.75,16.945v12.27a4.542,4.542,0,0,0,4.514,4.535H23.625a4.54,4.54,0,0,0,4.507-4.535V26.156h1.125c3.516,0,4.5-2.3,4.5-4.781v-6.75C33.75,12.143,32.555,9.844,29.25,9.844ZM24.75,13.5H10.125V9.724c.021-.028.049-.056.07-.084.084-.105.169-.211.246-.323a3.484,3.484,0,0,0,.323.239,3.992,3.992,0,0,0,2.229.682,4.079,4.079,0,0,0,1.287-.211,5.066,5.066,0,0,0,8.149.584A4.951,4.951,0,0,0,23.351,9h1.4v4.5Zm-18-4.493V14.28a1.119,1.119,0,0,1-1.125-1.125V8.7A2.2,2.2,0,0,1,4.549,7.228,2.059,2.059,0,0,1,4.5,6.757a2.257,2.257,0,0,1,2.25-2.25A3.053,3.053,0,0,1,8.866,5.59a1.952,1.952,0,0,0,2.384,0,2.556,2.556,0,0,1,1.744-1.083,1.745,1.745,0,0,1,1.118.408,1.672,1.672,0,0,1,.345.394c.077.127.141.3.218.408a.979.979,0,0,0,.788.387,1.017,1.017,0,0,0,.773-.352,1.373,1.373,0,0,0,.12-.162,3.03,3.03,0,0,1,.471-.478,2.81,2.81,0,0,1,3.67.162,1.717,1.717,0,0,0,.928.359,2.153,2.153,0,0,0,.577,0,1.861,1.861,0,0,0,1.153-.464,2.247,2.247,0,0,1,3.839,1.589,1.783,1.783,0,0,1-.084.64,1.118,1.118,0,0,0-1.027-.647H22.015a.551.551,0,0,0-.612.577,2.785,2.785,0,0,1-.548,1.666,2.822,2.822,0,0,1-4.725-.267,2.708,2.708,0,0,1-.26-.6c-.007-.042-.021-.077-.028-.113a1.048,1.048,0,0,0-1.709-.436l-.007.007a1.685,1.685,0,0,1-.591.33,1.712,1.712,0,0,1-.541.084,1.86,1.86,0,0,1-1.322-.6A1.937,1.937,0,0,0,9.584,7c-.422.091-.858.823-.858.823a2.3,2.3,0,0,1-.274.408A2.353,2.353,0,0,1,6.75,9.007ZM30.375,21.375c0,1.245-.443,1.688-1.687,1.688h-.562V12.938h.563c1.245,0,1.688.443,1.688,1.688Z" transform="translate(-2.25 -2.25)" fill="#00a050"/>
</svg>
