<svg id="_data_usage" data-name=" data_usage" xmlns="http://www.w3.org/2000/svg" width="24" height="24" viewBox="0 0 24 24">
  <rect id="Path" width="24" height="24" fill="rgba(0,0,0,0)"/>
  <path id="Icon" d="M9.987,19.627A10.52,10.52,0,0,1,8.6,19.534a10.011,10.011,0,0,1-8.51-8.51A10.019,10.019,0,0,1,7.07.064,1.5,1.5,0,0,1,9,1.5v.02A1.493,1.493,0,0,1,7.91,2.954a7,7,0,0,0,1.031,13.6,7.347,7.347,0,0,0,1.076.08,6.894,6.894,0,0,0,4.654-1.8,1.6,1.6,0,0,1,1.065-.419A1.483,1.483,0,0,1,17.2,15.738,1.48,1.48,0,0,1,16.73,17,9.941,9.941,0,0,1,9.987,19.627Zm8.306-6.647a1.522,1.522,0,0,1-.763-.206l-.01-.01a1.52,1.52,0,0,1-.689-1.64A6.61,6.61,0,0,0,17,9.634,6.923,6.923,0,0,0,15.609,5.45a7.086,7.086,0,0,0-3.529-2.5A1.512,1.512,0,0,1,11,1.524V1.5A1.5,1.5,0,0,1,12.494,0a1.464,1.464,0,0,1,.427.064A10.079,10.079,0,0,1,18,3.63a9.919,9.919,0,0,1,2,6,9.712,9.712,0,0,1-.26,2.23A1.472,1.472,0,0,1,18.293,12.98Z" transform="translate(2 2.366)" fill="#1d1d1d"/>
</svg>
