<svg xmlns="http://www.w3.org/2000/svg" width="26.997" height="27" viewBox="0 0 26.997 27">
  <path id="home" d="M26.272,11.743l0,0L15.256.728a2.485,2.485,0,0,0-3.515,0L.733,11.735l-.011.011a2.485,2.485,0,0,0,1.654,4.235q.038,0,.077,0h.439v8.105A2.912,2.912,0,0,0,5.8,27H10.11a.791.791,0,0,0,.791-.791V19.854a1.329,1.329,0,0,1,1.327-1.327h2.542A1.329,1.329,0,0,1,16.1,19.854v6.354a.791.791,0,0,0,.791.791H21.2a2.912,2.912,0,0,0,2.909-2.909V15.985h.407a2.486,2.486,0,0,0,1.759-4.242Zm0,0" transform="translate(0 0.001)" fill="#fff"/>
</svg>
