<svg xmlns="http://www.w3.org/2000/svg" width="40" height="40" viewBox="0 0 40 40">
  <path id="Icon_awesome-beer" data-name="Icon awesome-beer" d="M32.857,7.964H28.571V4.393A2.143,2.143,0,0,0,26.429,2.25H2.143A2.143,2.143,0,0,0,0,4.393V40.107A2.143,2.143,0,0,0,2.143,42.25H26.429a2.143,2.143,0,0,0,2.143-2.143v-3.76l7.2-3.212A7.151,7.151,0,0,0,40,26.613V15.107A7.151,7.151,0,0,0,32.857,7.964Zm1.429,18.648a1.43,1.43,0,0,1-.846,1.3L28.571,30.09V13.679h4.286a1.43,1.43,0,0,1,1.429,1.429ZM18.571,33.679a1.429,1.429,0,0,1-1.429-1.429v-20a1.429,1.429,0,1,1,2.857,0v20A1.429,1.429,0,0,1,18.571,33.679Zm-8.571,0A1.429,1.429,0,0,1,8.571,32.25v-20a1.429,1.429,0,1,1,2.857,0v20A1.429,1.429,0,0,1,10,33.679Z" transform="translate(0 -2.25)" fill="#00a050"/>
</svg>
