<svg xmlns="http://www.w3.org/2000/svg" width="18.617" height="18.984" viewBox="0 0 18.617 18.984">
  <path id="Path_156" data-name="Path 156" d="M15.095,37.98l.58-2.407.006-.023a1.67,1.67,0,0,1,1.178-1.178l1.759-.471a1.569,1.569,0,0,0-1.2-.563h-.519a7.73,7.73,0,0,0-.5-1.211l.367-.367a1.574,1.574,0,0,0,0-2.223l-1.11-1.11a1.572,1.572,0,0,0-2.223,0l-.367.367a7.751,7.751,0,0,0-1.211-.5v-.519A1.574,1.574,0,0,0,10.277,26.2H8.707a1.574,1.574,0,0,0-1.572,1.572v.519a7.744,7.744,0,0,0-1.211.5l-.367-.367a1.572,1.572,0,0,0-2.223,0l-1.109,1.11a1.574,1.574,0,0,0,0,2.223l.367.367a7.732,7.732,0,0,0-.5,1.211H1.572A1.574,1.574,0,0,0,0,34.91V36.48a1.574,1.574,0,0,0,1.572,1.572h.519a7.735,7.735,0,0,0,.5,1.211l-.367.367a1.574,1.574,0,0,0,0,2.223l1.11,1.109a1.572,1.572,0,0,0,2.223,0l.367-.367a7.731,7.731,0,0,0,1.211.5v.519a1.574,1.574,0,0,0,1.572,1.572h1.361a2.486,2.486,0,0,1,.535-2.715Zm-5.6,1.933A4.219,4.219,0,1,1,13.711,35.7,4.223,4.223,0,0,1,9.492,39.914Z" transform="translate(0 -26.203)" fill="#fff"/>
</svg>
