<svg xmlns="http://www.w3.org/2000/svg" width="36" height="60" viewBox="0 0 36 60">
  <g id="Group_2856" data-name="Group 2856" transform="translate(-801 -303)">
    <path id="Icon_awesome-box" data-name="Icon awesome-box" d="M35.824,12.98,32.266,2.306A3.366,3.366,0,0,0,29.067,0H19.125V13.5H35.909A3.212,3.212,0,0,0,35.824,12.98ZM16.875,0H6.933a3.366,3.366,0,0,0-3.2,2.306L.176,12.98a3.211,3.211,0,0,0-.084.52H16.875ZM0,15.75V32.625A3.376,3.376,0,0,0,3.375,36h29.25A3.376,3.376,0,0,0,36,32.625V15.75Z" transform="translate(801 327)" fill="#00a050"/>
    <path id="Icon_awesome-plus" data-name="Icon awesome-plus" d="M29.25,14.625H19.125V4.5a2.25,2.25,0,0,0-2.25-2.25h-2.25a2.25,2.25,0,0,0-2.25,2.25V14.625H2.25A2.25,2.25,0,0,0,0,16.875v2.25a2.25,2.25,0,0,0,2.25,2.25H12.375V31.5a2.25,2.25,0,0,0,2.25,2.25h2.25a2.25,2.25,0,0,0,2.25-2.25V21.375H29.25a2.25,2.25,0,0,0,2.25-2.25v-2.25A2.25,2.25,0,0,0,29.25,14.625Z" transform="translate(803 300.75)"/>
  </g>
</svg>
